<svg width="2291" height="2292" viewBox="0 0 2291 2292" fill="none" xmlns="http://www.w3.org/2000/svg">
<path d="M2291 1160.59C2291 1801.05 1771.28 2291.94 1116.4 2291.94C461.522 2291.94 22.7103 1801.05 22.7103 1160.59C22.7103 520.136 461.522 0.943359 1116.4 0.943359C1771.28 0.943359 2291 520.136 2291 1160.59Z" fill="#08415C"/>
<ellipse cx="1116.92" cy="1072.47" rx="1116.92" ry="1071.46" fill="#2A4747"/>
<ellipse cx="1116.4" cy="1054.55" rx="1025.04" ry="951.249" fill="#F7B2BD"/>
<path d="M200.468 1054.55C200.468 1579.91 571.418 1941.43 1116.4 2005.79C550.289 2005.79 91.3654 1579.91 91.3654 1054.55C91.3654 529.185 550.13 103.296 1116.4 103.296C-65.6364 622.447 200.468 529.185 200.468 1054.55Z" fill="#E34A6F"/>
<path d="M1599.85 1437.16L1646.52 1408.54L1644.31 1469.05L1599.85 1437.16Z" fill="#E34A6F"/>
<path d="M1222.8 492.41L1214.23 220.59L1288.6 218.284L1297.18 490.104L1222.8 492.41ZM1173.29 343.898L1171.29 280.74L1340.44 275.496L1342.43 338.654L1173.29 343.898Z" fill="#E34A6F"/>
<path d="M1513.31 611.85C1500.12 600.623 1491.2 588.126 1486.56 574.36C1482.12 560.767 1481.99 546.466 1486.17 531.458C1490.53 516.247 1499.35 500.977 1512.63 485.647L1592.56 393.365L1649.18 441.556L1575.28 526.879C1569.16 533.939 1565.11 540.652 1563.12 547.018C1561.13 553.385 1561.22 559.592 1563.38 565.64C1565.72 571.486 1570.04 577.086 1576.33 582.441C1580.79 586.241 1585.48 589.176 1590.38 591.248C1595.66 593.29 1600.86 594.21 1605.97 594.006C1611.46 593.773 1616.5 592.633 1621.1 590.585C1626.07 588.509 1630.48 585.252 1634.32 580.815L1710.05 493.374L1766.67 541.564L1626.99 702.831L1574.64 658.267L1599.9 623L1613.69 628.437C1605.52 633.395 1595.58 636.323 1583.88 637.222C1572.34 637.918 1560.44 636.196 1548.16 632.054C1536.09 628.085 1524.47 621.35 1513.31 611.85Z" fill="#E34A6F"/>
<path d="M1706 991.523L1737.68 780.67L1806.13 790.777L1802.32 840.357L1784.2 842.533C1788.95 832.452 1796.06 823.663 1805.55 816.167C1815.07 808.408 1826.3 802.787 1839.23 799.304C1852.15 795.821 1865.87 795.15 1880.38 797.293C1898.05 799.902 1912.55 805.683 1923.88 814.634C1935.47 823.624 1943.44 835.18 1947.79 849.302C1952.18 863.159 1953.03 879.055 1950.33 896.989L1931.13 1024.77L1857.54 1013.9L1875.07 897.198C1876.3 889.023 1875.88 881.951 1873.81 875.985C1871.74 870.018 1868.02 865.155 1862.66 861.398C1857.59 857.415 1851.24 854.859 1843.59 853.729C1836.99 852.755 1831.03 852.953 1825.7 854.323C1820.37 855.693 1815.72 857.971 1811.73 861.157C1807.79 864.079 1804.56 867.645 1802.04 871.856C1799.56 875.803 1797.98 880.018 1797.3 884.502L1779.59 1002.39L1742.79 996.956C1732.51 995.437 1724.33 994.23 1718.26 993.334C1712.19 992.438 1708.11 991.834 1706 991.523Z" fill="#E34A6F"/>
<path d="M1803.6 1375.12C1777.22 1371.22 1754.96 1363.22 1736.83 1351.11C1719 1338.77 1706.04 1323.64 1697.94 1305.73C1689.89 1287.56 1687.45 1267.93 1690.62 1246.83C1693.07 1230.48 1698.35 1216.02 1706.43 1203.47C1714.52 1190.91 1724.71 1180.56 1736.99 1172.4C1749.27 1164.23 1763.06 1158.59 1778.36 1155.46C1793.66 1152.32 1809.75 1152 1826.63 1154.5C1843.52 1156.99 1858.55 1161.9 1871.74 1169.24C1884.97 1176.32 1895.99 1185.49 1904.81 1196.77C1913.63 1208.05 1919.82 1220.69 1923.38 1234.69C1927.2 1248.74 1927.64 1263.76 1924.7 1279.77L1921.75 1296.73L1733.41 1268.92L1730.13 1228.8L1868.62 1249.25L1860.07 1257.7L1861.2 1250.18C1861.8 1244.34 1860.2 1238.84 1856.39 1233.7C1852.85 1228.59 1847.84 1224.21 1841.38 1220.56C1834.92 1216.91 1827.6 1214.49 1819.42 1213.28C1808.87 1211.72 1799.38 1212.07 1790.95 1214.33C1782.56 1216.33 1775.48 1220.4 1769.7 1226.56C1764.18 1232.75 1760.67 1240.86 1759.17 1250.88C1757.58 1261.43 1758.97 1271.07 1763.32 1279.8C1767.93 1288.57 1775.18 1295.98 1785.05 1302.02C1795.2 1308.1 1807.78 1312.25 1822.82 1314.47C1835.48 1316.34 1846.1 1316.56 1854.67 1315.13C1863.55 1313.47 1871.45 1311.14 1878.38 1308.11L1904.2 1359.64C1893.41 1365.06 1882.41 1369.23 1871.18 1372.16C1859.96 1375.08 1848.8 1376.67 1837.7 1376.92C1826.57 1377.43 1815.2 1376.83 1803.6 1375.12Z" fill="#E34A6F"/>
<path d="M1506.55 1718.11L1519.71 1505.32L1593.97 1509.83L1580.82 1722.62L1506.55 1718.11ZM1559.43 1465.66C1546.12 1464.85 1535.8 1461.15 1528.45 1454.56C1521.4 1447.72 1518.22 1438.58 1518.93 1427.13C1519.59 1416.48 1523.98 1408.07 1532.11 1401.88C1540.26 1395.43 1550.85 1392.6 1563.9 1393.4C1577.47 1394.22 1587.79 1398.05 1594.85 1404.89C1602.19 1411.48 1605.5 1420.64 1604.77 1432.35C1604.11 1442.99 1599.72 1451.41 1591.59 1457.59C1583.46 1463.78 1572.74 1466.47 1559.43 1465.66Z" fill="#E34A6F"/>
<path d="M1147.65 1871.46L1122.37 1660.63C1120.4 1644.22 1122.23 1629.24 1127.86 1615.69C1133.49 1602.14 1142.23 1591.05 1154.09 1582.4C1165.91 1573.49 1180.44 1568.02 1197.66 1565.99C1210.64 1564.46 1222.22 1564.71 1232.4 1566.73C1242.58 1568.75 1251.8 1571.69 1260.06 1575.55L1246.52 1630.7C1242.65 1629.81 1238.24 1628.86 1233.28 1627.83C1228.32 1626.8 1223.59 1626.56 1219.09 1627.09C1212.99 1627.8 1208.09 1629.46 1204.37 1632.04C1200.65 1634.63 1198.1 1638.02 1196.72 1642.2C1195.34 1646.39 1194.99 1651.27 1195.65 1656.83L1220.37 1862.89L1184.21 1867.15C1175.73 1868.15 1168.45 1869.01 1162.35 1869.73C1156.26 1870.45 1151.36 1871.02 1147.65 1871.46ZM1094.21 1731.6L1087.11 1672.44L1254 1652.77L1261.1 1711.93L1094.21 1731.6Z" fill="#E34A6F"/>
<path d="M658.607 1733.15L739.193 1625.43L731.108 1656.88L662.809 1423.3L746.122 1439.04L772.562 1542.98C774.396 1550.38 776.074 1557.89 777.596 1565.51C779.169 1572.86 780.272 1580.53 780.907 1588.53L766.397 1589.85C769.763 1585.06 773.592 1579.27 777.884 1572.48C782.438 1565.74 786.705 1559.09 790.685 1552.51L853.013 1459.25L935.933 1474.92L790.977 1665.34L731.308 1746.89L658.607 1733.15Z" fill="#E34A6F"/>
</svg>
