<svg width="1204" height="1204" viewBox="0 0 1204 1204" fill="none" xmlns="http://www.w3.org/2000/svg">
<circle cx="602" cy="602" r="602" fill="#FF1094"/>
<path d="M357 590.5C357 725.534 362.475 844 302 844C241.525 844 92.5 725.534 92.5 590.5C92.5 455.466 249.525 320.5 310 320.5C370.475 320.5 357 455.466 357 590.5Z" fill="#33495A"/>
<path d="M1040.09 610.573C1040.09 750.895 1043.98 874 1000.98 874C957.973 874 852 750.895 852 610.573C852 470.252 963.662 330 1006.67 330C1049.67 330 1040.09 470.252 1040.09 610.573Z" fill="#33495A"/>
<path d="M425 588.759C425 723.793 439.975 615.759 379.5 615.759C319.025 615.759 387.5 741.259 256.5 588.759C396 439.259 319.025 567.259 379.5 567.259C439.975 567.259 425 453.726 425 588.759Z" fill="#33495A"/>
<path d="M794.01 591.381C793.354 456.349 778.904 564.454 839.378 564.16C899.853 563.866 830.768 438.7 962.508 590.562C823.736 740.738 900.088 612.366 839.614 612.66C779.139 612.953 794.666 726.413 794.01 591.381Z" fill="#33495A"/>
<path d="M225 514.5C225 524.717 216.717 533 206.5 533C196.283 533 188 524.717 188 514.5C188 504.283 196.283 496 206.5 496C216.717 496 225 504.283 225 514.5Z" fill="#FF1094"/>
<path d="M503 594.038C503 725.585 491.341 764 455.624 764C419.907 764 409 725.585 409 594.038C409 462.49 419.907 400 455.624 400C491.341 400 503 462.49 503 594.038Z" fill="#33495A"/>
<path d="M821 594.038C821 725.585 809.341 764 773.624 764C737.907 764 727 725.585 727 594.038C727 462.49 737.907 400 773.624 400C809.341 400 821 462.49 821 594.038Z" fill="#33495A"/>
<path d="M652 624.617C652 877.231 639.721 951 602.104 951C564.487 951 553 877.231 553 624.617C553 372.002 564.487 252 602.104 252C639.721 252 652 372.002 652 624.617Z" fill="#33495A"/>
<path d="M620.702 252.223C765.581 252.05 807.902 263.638 807.945 299.292C807.987 334.946 765.692 345.884 620.814 346.056C475.935 346.228 407.099 335.423 407.056 299.769C407.014 264.115 475.823 252.395 620.702 252.223Z" fill="#33495A"/>
</svg>
